<svg xmlns="http://www.w3.org/2000/svg" xmlns:xlink="http://www.w3.org/1999/xlink" preserveAspectRatio="xMidYMid" width="552" height="560" viewBox="0 0 552 560">
  <defs>
    <style>
      .cls-1 {
        fill: #f04e23;
        opacity: 0.28;
        fill-rule: evenodd;
      }

      .cls-2 {
        stroke: #f04e23;
        stroke-width: 2px;
        fill: none;
      }
    </style>
  </defs>
  <path d="M410.534,512.118 C368.202,541.832 316.658,559.273 261.042,559.273 C116.981,559.273 0.196,442.296 0.196,297.997 C0.196,231.586 24.946,170.975 65.693,124.879 C111.643,50.373 193.905,0.715 287.758,0.715 C427.054,0.715 540.839,110.085 548.215,247.768 C550.577,261.445 551.821,275.506 551.821,289.859 C551.821,388.225 493.990,473.048 410.534,512.118 ZM475.884,442.967 C462.811,456.598 448.270,468.802 432.526,479.345 C393.608,511.127 344.489,530.841 290.843,532.817 C296.186,533.168 301.572,533.363 307.004,533.363 C343.441,533.363 377.997,525.319 409.022,510.930 C435.265,492.598 457.975,469.544 475.884,442.967 ZM282.658,48.067 C280.973,48.067 279.294,48.095 277.617,48.131 C254.669,50.901 232.709,56.882 212.188,65.597 C234.249,58.850 257.663,55.209 281.929,55.209 C363.968,55.209 436.325,96.703 479.243,159.877 C439.284,92.914 366.204,48.067 282.658,48.067 ZM390.348,73.167 C370.921,61.935 349.907,53.148 327.720,47.244 C320.890,46.667 313.984,46.355 307.004,46.355 C302.546,46.355 298.118,46.484 293.719,46.721 C328.506,48.368 361.269,57.745 390.348,73.167 ZM281.929,531.328 C332.152,531.328 378.714,515.655 417.034,488.946 C378.926,510.775 334.803,523.269 287.758,523.269 C255.679,523.269 224.959,517.455 196.573,506.844 C220.587,519.131 246.917,527.511 274.724,531.208 C277.118,531.280 279.518,531.328 281.929,531.328 ZM513.145,277.319 C513.145,404.823 409.952,508.186 282.658,508.186 C209.371,508.186 144.080,473.920 101.864,420.516 C122.356,452.720 150.178,479.789 183.002,499.327 C215.034,513.534 250.472,521.440 287.758,521.440 C341.580,521.440 391.550,504.975 432.966,476.828 C485.375,433.315 518.761,367.617 518.761,294.104 C518.761,263.126 512.825,233.538 502.043,206.409 C509.240,228.752 513.145,252.576 513.145,277.319 ZM491.860,184.226 C452.293,108.536 373.140,56.881 281.929,56.881 C252.198,56.881 223.754,62.385 197.536,72.404 C118.264,112.515 63.902,194.821 63.902,289.859 C63.902,332.172 74.695,371.951 93.648,406.616 C134.874,466.963 204.144,506.570 282.658,506.570 C409.061,506.570 511.531,403.930 511.531,277.319 C511.531,244.172 504.497,212.675 491.860,184.226 ZM183.018,501.331 C145.504,484.836 112.610,459.752 86.810,428.568 C125.218,484.378 186.861,522.908 257.757,530.107 C230.997,524.627 205.825,514.776 183.018,501.331 ZM170.121,493.197 C137.492,471.115 110.466,441.360 91.617,406.518 C66.716,369.648 52.171,325.185 52.171,277.319 C52.171,245.669 58.537,215.512 70.043,188.049 C54.089,219.966 45.097,255.981 45.097,294.104 C45.097,336.916 56.424,377.076 76.233,411.750 C100.401,445.936 132.615,474.012 170.121,493.197 ZM53.785,277.319 C53.785,318.949 64.865,357.987 84.230,391.638 C70.089,360.633 62.188,326.173 62.188,289.859 C62.188,200.154 110.283,121.714 182.049,78.966 C141.153,98.048 106.594,128.469 82.428,166.213 C64.184,199.127 53.785,237.004 53.785,277.319 ZM196.530,70.998 C216.262,60.986 237.525,53.562 259.882,49.195 C192.828,55.831 134.282,91.454 96.898,143.378 C123.001,111.267 157.267,86.086 196.530,70.998 ZM492.819,182.461 C493.828,184.369 494.811,186.292 495.769,188.230 C494.252,184.981 492.693,181.756 491.047,178.582 C491.654,179.866 492.234,181.165 492.819,182.461 ZM446.643,466.875 C459.295,457.015 471.017,446.014 481.639,434.012 C503.161,399.066 516.640,358.625 519.488,315.273 C514.275,374.731 487.333,427.943 446.643,466.875 ZM2.022,297.997 C2.022,441.286 117.989,557.444 261.042,557.444 C312.554,557.444 360.538,542.358 400.876,516.391 C371.966,528.424 340.263,535.080 307.004,535.080 C295.777,535.080 284.728,534.318 273.902,532.851 C189.233,530.045 115.742,483.043 75.683,414.129 C44.987,371.283 26.912,318.754 26.912,261.992 C26.912,215.512 39.044,171.876 60.287,134.061 C23.872,178.749 2.022,235.814 2.022,297.997 ZM28.738,261.992 C28.738,311.717 42.712,358.169 66.929,397.639 C51.868,366.316 43.428,331.198 43.428,294.104 C43.428,246.443 57.368,202.046 81.378,164.769 C119.860,95.871 192.572,48.756 276.458,46.536 C286.466,45.288 296.659,44.639 307.004,44.639 C310.764,44.639 314.501,44.737 318.220,44.905 C299.824,40.753 280.691,38.549 261.042,38.549 C183.881,38.549 114.614,72.356 67.162,125.976 C42.804,165.526 28.738,212.111 28.738,261.992 ZM287.758,2.544 C198.312,2.544 119.457,47.958 72.917,117.021 C120.382,67.530 187.117,36.720 261.042,36.720 C284.431,36.720 307.095,39.821 328.663,45.605 C434.529,54.903 521.059,131.680 545.131,232.751 C530.624,103.230 420.939,2.544 287.758,2.544 ZM546.328,246.864 C527.848,142.959 443.574,61.865 338.199,48.344 C444.592,81.298 521.888,180.603 521.888,297.997 C521.888,344.477 509.755,388.113 488.513,425.927 C524.928,381.239 546.778,324.175 546.778,261.992 C546.778,256.913 546.616,251.872 546.328,246.864 ZM483.107,435.110 C466.115,462.662 444.146,486.802 418.473,506.303 C496.658,465.823 550.107,384.097 550.107,289.859 C550.107,280.681 549.583,271.626 548.595,262.711 C548.417,328.839 523.706,389.180 483.107,435.110 Z" class="cls-1"/>
  <circle cx="275.844" cy="283.812" r="215.5" class="cls-2"/>
</svg>
